<?xml version="1.0" encoding="UTF-8"?>
<!DOCTYPE svg PUBLIC "-//W3C//DTD SVG 1.1//EN" "http://www.w3.org/Graphics/SVG/1.1/DTD/svg11.dtd">
<svg version="1.1" xmlns="http://www.w3.org/2000/svg" xmlns:xlink="http://www.w3.org/1999/xlink" x="0px" y="0px" width="128" height="128" viewBox="0, 0, 128, 128">
  <g id="Background">
    <rect x="0" y="0" width="128" height="128" fill="#000000" fill-opacity="0"/>
  </g>
  <g id="Background">
    <path d="M18.095,6 L109.907,6 C116.561,6 122,11.439 122,18.093 L122,109.907 C122,116.561 116.561,122 109.907,122 L18.095,122 C11.441,122 6,116.561 6,109.907 L6,18.093 C6,11.439 11.441,6 18.095,6" fill="#727272"/>
    <path d="M25.752,40.193 L64.553,19.437 L103.355,40.193 L64.553,60.95 z M104.592,87.807 L104.632,43.665 L65.832,64.425 L65.792,108.56 z M23.405,87.62 L23.365,43.481 L62.16,64.238 L62.205,108.373 z" fill="#EBECEC"/>
    <path d="M35.216,56.26 C37.462,57.475 39.281,60.273 39.281,62.521 C39.281,64.764 37.462,65.59 35.216,64.375 C32.973,63.161 31.156,60.356 31.156,58.113 C31.156,55.867 32.973,55.041 35.216,56.26 z M44.573,43.249 C46.751,44.581 50.085,44.755 52.026,43.637 C53.972,42.513 53.784,40.521 51.606,39.189 C49.432,37.855 46.094,37.686 44.153,38.805 C42.211,39.924 42.4,41.915 44.573,43.249 z M77.591,38.933 C79.766,40.267 83.105,40.436 85.046,39.316 C86.986,38.198 86.799,36.207 84.625,34.873 C82.45,33.534 79.112,33.366 77.172,34.484 C75.231,35.607 75.418,37.594 77.591,38.933 z M67.275,44.887 C69.449,46.221 72.787,46.395 74.728,45.271 C76.675,44.153 76.483,42.161 74.303,40.827 C72.13,39.495 68.796,39.321 66.855,40.439 C64.91,41.564 65.102,43.555 67.275,44.887 z M56.958,50.844 C59.133,52.176 62.471,52.35 64.412,51.232 C66.352,50.107 66.16,48.116 63.992,46.784 C61.814,45.45 58.479,45.276 56.534,46.4 C54.593,47.523 54.78,49.51 56.958,50.844 z M65.207,31.338 C67.385,32.672 70.723,32.841 72.665,31.721 C74.606,30.598 74.417,28.612 72.244,27.273 C70.066,25.944 66.728,25.77 64.786,26.89 C62.845,28.013 63.037,30.004 65.207,31.338 z M54.894,37.293 C57.067,38.627 60.402,38.801 62.342,37.681 C64.288,36.558 64.097,34.567 61.923,33.233 C59.748,31.9 56.415,31.726 54.47,32.844 C52.524,33.969 52.716,35.96 54.894,37.293 z M92.791,56.255 C90.548,57.475 88.731,60.273 88.731,62.516 C88.731,64.764 90.548,65.595 92.791,64.375 C95.033,63.161 96.851,60.356 96.851,58.113 C96.851,55.872 95.033,55.041 92.791,56.255 z M80.021,87.008 C77.78,88.223 75.961,91.028 75.961,93.271 C75.961,95.512 77.78,96.343 80.021,95.128 C82.264,93.913 84.081,91.11 84.081,88.867 C84.081,86.625 82.264,85.793 80.021,87.008 z M80.021,75.094 C77.78,76.314 75.961,79.117 75.961,81.36 C75.961,83.602 77.78,84.434 80.021,83.214 C82.264,81.999 84.081,79.194 84.081,76.952 C84.081,74.711 82.264,73.879 80.021,75.094 z M80.021,63.183 C77.78,64.398 75.961,67.201 75.961,69.444 C75.961,71.687 77.78,72.518 80.021,71.303 C82.264,70.084 84.081,67.283 84.081,65.038 C84.081,62.795 82.264,61.964 80.021,63.183 z M92.791,80.08 C90.548,81.3 88.731,84.103 88.731,86.346 C88.731,88.589 90.548,89.42 92.791,88.205 C95.033,86.986 96.851,84.182 96.851,81.94 C96.851,79.697 95.033,78.866 92.791,80.08 z M92.791,68.17 C90.548,69.384 88.731,72.189 88.731,74.432 C88.731,76.673 90.548,77.504 92.791,76.29 C95.033,75.07 96.851,72.271 96.851,70.029 C96.851,67.781 95.033,66.95 92.791,68.17 z M47.984,87.008 C50.227,88.223 52.041,91.028 52.041,93.271 C52.041,95.517 50.227,96.343 47.984,95.128 C45.743,93.909 43.924,91.11 43.924,88.863 C43.924,86.62 45.743,85.793 47.984,87.008 z M47.984,75.094 C50.227,76.309 52.041,79.117 52.041,81.36 C52.041,83.598 50.227,84.434 47.984,83.217 C45.743,81.999 43.924,79.194 43.924,76.952 C43.924,74.711 45.743,73.874 47.984,75.094 z M47.984,63.183 C50.227,64.398 52.041,67.198 52.041,69.444 C52.041,71.687 50.227,72.518 47.984,71.303 C45.743,70.088 43.924,67.28 43.924,65.038 C43.924,62.795 45.743,61.964 47.984,63.183 z M35.216,80.08 C37.462,81.295 39.281,84.103 39.281,86.346 C39.281,88.589 37.462,89.42 35.216,88.205 C32.973,86.986 31.156,84.186 31.156,81.94 C31.156,79.697 32.973,78.866 35.216,80.08 z M35.216,68.17 C37.462,69.384 39.281,72.189 39.281,74.432 C39.281,76.673 37.462,77.509 35.216,76.294 C32.973,75.075 31.156,72.267 31.156,70.024 C31.156,67.786 32.973,66.95 35.216,68.17" fill="#727272"/>
  </g>
  <defs/>
</svg>
