<svg width="1952" height="2207" viewBox="0 0 1952 2207" fill="none" xmlns="http://www.w3.org/2000/svg">
<path d="M233.492 1452C264.016 1451.99 293.74 1461.91 318.3 1480.31C342.86 1498.71 360.964 1524.62 369.953 1554.23C378.942 1583.84 378.343 1615.6 368.245 1644.84C358.147 1674.08 339.081 1699.26 313.846 1716.7C357.647 1733 395.638 1762.25 422.928 1800.66C450.218 1839.07 465.559 1884.89 466.975 1932.23C467.107 1934.86 466.721 1937.49 465.839 1939.96C464.958 1942.44 463.598 1944.71 461.841 1946.64C460.083 1948.57 457.963 1950.13 455.604 1951.22C453.246 1952.31 450.696 1952.91 448.106 1952.99C445.515 1953.07 442.935 1952.62 440.517 1951.67C438.1 1950.72 435.893 1949.29 434.027 1947.47C432.161 1945.64 430.672 1943.46 429.649 1941.04C428.626 1938.62 428.089 1936.02 428.069 1933.39C426.524 1882.05 405.348 1833.35 369.028 1797.59C332.709 1761.83 284.101 1741.83 233.505 1741.83C182.908 1741.83 134.3 1761.83 97.9809 1797.59C61.6617 1833.35 40.4855 1882.05 38.9399 1933.39C38.785 1938.63 36.5856 1943.59 32.8256 1947.19C29.0656 1950.78 24.0529 1952.71 18.8904 1952.56C13.7278 1952.4 8.83816 1950.17 5.29717 1946.35C1.75619 1942.53 -0.14611 1937.45 0.00876759 1932.21C1.42971 1884.87 16.7724 1839.05 44.0622 1800.65C71.352 1762.24 109.34 1733 153.138 1716.7C127.902 1699.26 108.836 1674.08 98.7381 1644.84C88.64 1615.6 88.0415 1583.84 97.0306 1554.23C106.02 1524.62 124.123 1498.71 148.683 1480.31C173.243 1461.91 202.967 1451.99 233.492 1452ZM129.675 1596.9C129.675 1624.85 140.613 1651.66 160.082 1671.42C179.552 1691.18 205.958 1702.29 233.492 1702.29C261.025 1702.29 287.432 1691.18 306.901 1671.42C326.37 1651.66 337.308 1624.85 337.308 1596.9C337.308 1568.95 326.37 1542.15 306.901 1522.38C287.432 1502.62 261.025 1491.52 233.492 1491.52C205.958 1491.52 179.552 1502.62 160.082 1522.38C140.613 1542.15 129.675 1568.95 129.675 1596.9Z" fill="#737370"/>
<path d="M728.492 1452C759.016 1451.99 788.74 1461.91 813.3 1480.31C837.86 1498.71 855.964 1524.62 864.953 1554.23C873.942 1583.84 873.343 1615.6 863.245 1644.84C853.147 1674.08 834.081 1699.26 808.846 1716.7C852.647 1733 890.638 1762.25 917.928 1800.66C945.218 1839.07 960.559 1884.89 961.975 1932.23C962.107 1934.86 961.721 1937.49 960.839 1939.96C959.958 1942.44 958.598 1944.71 956.841 1946.64C955.083 1948.57 952.963 1950.13 950.604 1951.22C948.246 1952.31 945.696 1952.91 943.106 1952.99C940.515 1953.07 937.935 1952.62 935.517 1951.67C933.1 1950.72 930.893 1949.29 929.027 1947.47C927.161 1945.64 925.672 1943.46 924.649 1941.04C923.626 1938.62 923.089 1936.02 923.069 1933.39C921.524 1882.05 900.348 1833.35 864.028 1797.59C827.709 1761.83 779.101 1741.83 728.505 1741.83C677.908 1741.83 629.3 1761.83 592.981 1797.59C556.662 1833.35 535.485 1882.05 533.94 1933.39C533.785 1938.63 531.586 1943.59 527.826 1947.19C524.066 1950.78 519.053 1952.71 513.89 1952.56C508.728 1952.4 503.838 1950.17 500.297 1946.35C496.756 1942.53 494.854 1937.45 495.009 1932.21C496.43 1884.87 511.772 1839.05 539.062 1800.65C566.352 1762.24 604.34 1733 648.138 1716.7C622.902 1699.26 603.836 1674.08 593.738 1644.84C583.64 1615.6 583.041 1583.84 592.031 1554.23C601.02 1524.62 619.123 1498.71 643.683 1480.31C668.243 1461.91 697.967 1451.99 728.492 1452ZM624.675 1596.9C624.675 1624.85 635.613 1651.66 655.082 1671.42C674.552 1691.18 700.958 1702.29 728.492 1702.29C756.025 1702.29 782.432 1691.18 801.901 1671.42C821.37 1651.66 832.308 1624.85 832.308 1596.9C832.308 1568.95 821.37 1542.15 801.901 1522.38C782.432 1502.62 756.025 1491.52 728.492 1491.52C700.958 1491.52 674.552 1502.62 655.082 1522.38C635.613 1542.15 624.675 1568.95 624.675 1596.9Z" fill="#737370"/>
<path d="M1223.49 1452C1254.02 1451.99 1283.74 1461.91 1308.3 1480.31C1332.86 1498.71 1350.96 1524.62 1359.95 1554.23C1368.94 1583.84 1368.34 1615.6 1358.25 1644.84C1348.15 1674.08 1329.08 1699.26 1303.85 1716.7C1347.65 1733 1385.64 1762.25 1412.93 1800.66C1440.22 1839.07 1455.56 1884.89 1456.97 1932.23C1457.11 1934.86 1456.72 1937.49 1455.84 1939.96C1454.96 1942.44 1453.6 1944.71 1451.84 1946.64C1450.08 1948.57 1447.96 1950.13 1445.6 1951.22C1443.25 1952.31 1440.7 1952.91 1438.11 1952.99C1435.51 1953.07 1432.93 1952.62 1430.52 1951.67C1428.1 1950.72 1425.89 1949.29 1424.03 1947.47C1422.16 1945.64 1420.67 1943.46 1419.65 1941.04C1418.63 1938.62 1418.09 1936.02 1418.07 1933.39C1416.52 1882.05 1395.35 1833.35 1359.03 1797.59C1322.71 1761.83 1274.1 1741.83 1223.5 1741.83C1172.91 1741.83 1124.3 1761.83 1087.98 1797.59C1051.66 1833.35 1030.49 1882.05 1028.94 1933.39C1028.79 1938.63 1026.59 1943.59 1022.83 1947.19C1019.07 1950.78 1014.05 1952.71 1008.89 1952.56C1003.73 1952.4 998.838 1950.17 995.297 1946.35C991.756 1942.53 989.854 1937.45 990.009 1932.21C991.43 1884.87 1006.77 1839.05 1034.06 1800.65C1061.35 1762.24 1099.34 1733 1143.14 1716.7C1117.9 1699.26 1098.84 1674.08 1088.74 1644.84C1078.64 1615.6 1078.04 1583.84 1087.03 1554.23C1096.02 1524.62 1114.12 1498.71 1138.68 1480.31C1163.24 1461.91 1192.97 1451.99 1223.49 1452ZM1119.68 1596.9C1119.68 1624.85 1130.61 1651.66 1150.08 1671.42C1169.55 1691.18 1195.96 1702.29 1223.49 1702.29C1251.03 1702.29 1277.43 1691.18 1296.9 1671.42C1316.37 1651.66 1327.31 1624.85 1327.31 1596.9C1327.31 1568.95 1316.37 1542.15 1296.9 1522.38C1277.43 1502.62 1251.03 1491.52 1223.49 1491.52C1195.96 1491.52 1169.55 1502.62 1150.08 1522.38C1130.61 1542.15 1119.68 1568.95 1119.68 1596.9Z" fill="#737370"/>
<path d="M1718.49 1452C1749.02 1451.99 1778.74 1461.91 1803.3 1480.31C1827.86 1498.71 1845.96 1524.62 1854.95 1554.23C1863.94 1583.84 1863.34 1615.6 1853.25 1644.84C1843.15 1674.08 1824.08 1699.26 1798.85 1716.7C1842.65 1733 1880.64 1762.25 1907.93 1800.66C1935.22 1839.07 1950.56 1884.89 1951.97 1932.23C1952.11 1934.86 1951.72 1937.49 1950.84 1939.96C1949.96 1942.44 1948.6 1944.71 1946.84 1946.64C1945.08 1948.57 1942.96 1950.13 1940.6 1951.22C1938.25 1952.31 1935.7 1952.91 1933.11 1952.99C1930.51 1953.07 1927.93 1952.62 1925.52 1951.67C1923.1 1950.72 1920.89 1949.29 1919.03 1947.47C1917.16 1945.64 1915.67 1943.46 1914.65 1941.04C1913.63 1938.62 1913.09 1936.02 1913.07 1933.39C1911.52 1882.05 1890.35 1833.35 1854.03 1797.59C1817.71 1761.83 1769.1 1741.83 1718.5 1741.83C1667.91 1741.83 1619.3 1761.83 1582.98 1797.59C1546.66 1833.35 1525.49 1882.05 1523.94 1933.39C1523.79 1938.63 1521.59 1943.59 1517.83 1947.19C1514.07 1950.78 1509.05 1952.71 1503.89 1952.56C1498.73 1952.4 1493.84 1950.17 1490.3 1946.35C1486.76 1942.53 1484.85 1937.45 1485.01 1932.21C1486.43 1884.87 1501.77 1839.05 1529.06 1800.65C1556.35 1762.24 1594.34 1733 1638.14 1716.7C1612.9 1699.26 1593.84 1674.08 1583.74 1644.84C1573.64 1615.6 1573.04 1583.84 1582.03 1554.23C1591.02 1524.62 1609.12 1498.71 1633.68 1480.31C1658.24 1461.91 1687.97 1451.99 1718.49 1452ZM1614.68 1596.9C1614.68 1624.85 1625.61 1651.66 1645.08 1671.42C1664.55 1691.18 1690.96 1702.29 1718.49 1702.29C1746.03 1702.29 1772.43 1691.18 1791.9 1671.42C1811.37 1651.66 1822.31 1624.85 1822.31 1596.9C1822.31 1568.95 1811.37 1542.15 1791.9 1522.38C1772.43 1502.62 1746.03 1491.52 1718.49 1491.52C1690.96 1491.52 1664.55 1502.62 1645.08 1522.38C1625.61 1542.15 1614.68 1568.95 1614.68 1596.9Z" fill="#737370"/>
<path fill-rule="evenodd" clip-rule="evenodd" d="M133.333 771.362H216.667V838.028H250V771.362H333.333V738.028H400C417.681 738.028 434.638 731.005 447.14 718.502C459.643 706 466.667 689.043 466.667 671.362V273.262C466.667 255.581 459.643 238.624 447.14 226.121C434.638 213.619 417.681 206.595 400 206.595H300L281.133 187.195C274.92 180.805 267.489 175.725 259.279 172.256C251.069 168.787 242.246 167 233.333 167C224.42 167 215.598 168.787 207.388 172.256C199.178 175.725 191.746 180.805 185.533 187.195L166.667 206.595H66.6667C48.9856 206.595 32.0286 213.619 19.5262 226.121C7.02379 238.624 0 255.581 0 273.262V671.362C0 689.043 7.02379 706 19.5262 718.502C32.0286 731.005 48.9856 738.028 66.6667 738.028H133.333V771.362ZM276.1 229.828C279.206 233.024 282.922 235.565 287.027 237.299C291.132 239.034 295.543 239.928 300 239.928H400C408.841 239.928 417.319 243.44 423.57 249.692C429.821 255.943 433.333 264.421 433.333 273.262V563.695C428.43 559.881 423.28 556.395 417.917 553.262C387.5 535.562 343.517 526.362 291.533 557.028C248.733 582.278 208.483 589.112 164.7 590.028C145.2 590.445 125.233 589.695 103.85 588.878C100.906 588.765 97.9612 588.653 95.0167 588.545C74.4684 587.653 53.8998 587.314 33.3333 587.528V273.278C33.3333 264.438 36.8452 255.959 43.0964 249.708C49.3477 243.457 57.8261 239.945 66.6667 239.945H166.667C171.123 239.945 175.535 239.051 179.64 237.316C183.745 235.581 187.46 233.041 190.567 229.845L209.433 210.445C212.54 207.25 216.255 204.71 220.361 202.976C224.466 201.241 228.877 200.348 233.333 200.348C237.79 200.348 242.201 201.241 246.306 202.976C250.411 204.71 254.127 207.25 257.233 210.445L276.1 229.828ZM33.3333 620.878V671.362C33.3333 680.202 36.8452 688.681 43.0964 694.932C49.3477 701.183 57.8261 704.695 66.6667 704.695H400C408.841 704.695 417.319 701.183 423.57 694.932C429.821 688.681 433.333 680.202 433.333 671.362V610.195C424.427 598.922 413.517 589.39 401.15 582.078C379.583 569.512 348.583 562.062 308.483 585.712C259.183 614.795 212.767 622.345 165.4 623.345C144.833 623.778 123.833 622.978 102.567 622.178L93.7833 621.845C73.6459 620.973 53.4884 620.65 33.3333 620.878Z" fill="#737370"/>
<path d="M177.474 494H154.392L221.153 312.182H243.881L310.642 494H287.56L233.227 340.946H231.807L177.474 494ZM185.997 422.977H279.037V442.509H185.997V422.977Z" fill="#006CA9"/>
<path d="M177.474 2014H154.392L221.153 1832.18H243.881L310.642 2014H287.56L233.227 1860.95H231.807L177.474 2014ZM185.997 1942.98H279.037V1962.51H185.997V1942.98Z" fill="#006CA9"/>
<path fill-rule="evenodd" clip-rule="evenodd" d="M628.333 771.362H711.667V838.028H745V771.362H828.333V738.028H895C912.681 738.028 929.638 731.005 942.14 718.502C954.643 706 961.667 689.043 961.667 671.362V273.262C961.667 255.581 954.643 238.624 942.14 226.121C929.638 213.619 912.681 206.595 895 206.595H795L776.133 187.195C769.92 180.805 762.489 175.725 754.279 172.256C746.069 168.787 737.246 167 728.333 167C719.42 167 710.598 168.787 702.388 172.256C694.178 175.725 686.746 180.805 680.533 187.195L661.667 206.595H561.667C543.986 206.595 527.029 213.619 514.526 226.121C502.024 238.624 495 255.581 495 273.262V671.362C495 689.043 502.024 706 514.526 718.502C527.029 731.005 543.986 738.028 561.667 738.028H628.333V771.362ZM771.1 229.828C774.206 233.024 777.922 235.565 782.027 237.299C786.132 239.034 790.543 239.928 795 239.928H895C903.841 239.928 912.319 243.44 918.57 249.692C924.821 255.943 928.333 264.421 928.333 273.262V563.695C923.43 559.881 918.28 556.395 912.917 553.262C882.5 535.562 838.517 526.362 786.533 557.028C743.733 582.278 703.483 589.112 659.7 590.028C640.2 590.445 620.233 589.695 598.85 588.878C595.906 588.765 592.961 588.653 590.017 588.545C569.468 587.653 548.9 587.314 528.333 587.528V273.278C528.333 264.438 531.845 255.959 538.096 249.708C544.348 243.457 552.826 239.945 561.667 239.945H661.667C666.123 239.945 670.535 239.051 674.64 237.316C678.745 235.581 682.46 233.041 685.567 229.845L704.433 210.445C707.54 207.25 711.255 204.71 715.361 202.976C719.466 201.241 723.877 200.348 728.333 200.348C732.79 200.348 737.201 201.241 741.306 202.976C745.411 204.71 749.127 207.25 752.233 210.445L771.1 229.828ZM528.333 620.878V671.362C528.333 680.202 531.845 688.681 538.096 694.932C544.348 701.183 552.826 704.695 561.667 704.695H895C903.841 704.695 912.319 701.183 918.57 694.932C924.821 688.681 928.333 680.202 928.333 671.362V610.195C919.427 598.922 908.517 589.39 896.15 582.078C874.583 569.512 843.583 562.062 803.483 585.712C754.183 614.795 707.767 622.345 660.4 623.345C639.833 623.778 618.833 622.978 597.567 622.178L588.783 621.845C568.646 620.973 548.488 620.65 528.333 620.878Z" fill="#737370"/>
<path d="M665.017 494V312.182H728.582C741.248 312.182 751.694 314.372 759.921 318.751C768.148 323.072 774.274 328.902 778.298 336.241C782.323 343.521 784.335 351.599 784.335 360.477C784.335 368.29 782.944 374.741 780.163 379.831C777.44 384.921 773.83 388.946 769.332 391.905C764.893 394.864 760.069 397.054 754.861 398.474V400.25C760.424 400.605 766.017 402.558 771.64 406.109C777.263 409.661 781.968 414.75 785.756 421.379C789.544 428.008 791.438 436.116 791.438 445.705C791.438 454.819 789.366 463.016 785.223 470.296C781.08 477.576 774.54 483.347 765.603 487.608C756.666 491.869 745.036 494 730.713 494H665.017ZM687.034 474.469H730.713C745.095 474.469 755.305 471.687 761.342 466.124C767.438 460.501 770.486 453.695 770.486 445.705C770.486 439.549 768.917 433.867 765.781 428.659C762.644 423.392 758.175 419.189 752.375 416.053C746.575 412.857 739.709 411.259 731.778 411.259H687.034V474.469ZM687.034 392.082H727.872C734.501 392.082 740.479 390.78 745.805 388.176C751.191 385.572 755.453 381.902 758.589 377.168C761.786 372.433 763.384 366.869 763.384 360.477C763.384 352.487 760.602 345.71 755.038 340.147C749.475 334.524 740.656 331.713 728.582 331.713H687.034V392.082Z" fill="#006CA9"/>
<path d="M665.017 2014V1832.18H728.582C741.248 1832.18 751.694 1834.37 759.921 1838.75C768.148 1843.07 774.274 1848.9 778.298 1856.24C782.323 1863.52 784.335 1871.6 784.335 1880.48C784.335 1888.29 782.944 1894.74 780.163 1899.83C777.44 1904.92 773.83 1908.95 769.332 1911.9C764.893 1914.86 760.069 1917.05 754.861 1918.47V1920.25C760.424 1920.61 766.017 1922.56 771.64 1926.11C777.263 1929.66 781.968 1934.75 785.756 1941.38C789.544 1948.01 791.438 1956.12 791.438 1965.7C791.438 1974.82 789.366 1983.02 785.223 1990.3C781.08 1997.58 774.54 2003.35 765.603 2007.61C756.666 2011.87 745.036 2014 730.713 2014H665.017ZM687.034 1994.47H730.713C745.095 1994.47 755.305 1991.69 761.342 1986.12C767.438 1980.5 770.486 1973.69 770.486 1965.7C770.486 1959.55 768.917 1953.87 765.781 1948.66C762.644 1943.39 758.175 1939.19 752.375 1936.05C746.575 1932.86 739.709 1931.26 731.778 1931.26H687.034V1994.47ZM687.034 1912.08H727.872C734.501 1912.08 740.479 1910.78 745.805 1908.18C751.191 1905.57 755.453 1901.9 758.589 1897.17C761.786 1892.43 763.384 1886.87 763.384 1880.48C763.384 1872.49 760.602 1865.71 755.038 1860.15C749.475 1854.52 740.656 1851.71 728.582 1851.71H687.034V1912.08Z" fill="#006CA9"/>
<path fill-rule="evenodd" clip-rule="evenodd" d="M1123.33 771.362H1206.67V838.028H1240V771.362H1323.33V738.028H1390C1407.68 738.028 1424.64 731.005 1437.14 718.502C1449.64 706 1456.67 689.043 1456.67 671.362V273.262C1456.67 255.581 1449.64 238.624 1437.14 226.121C1424.64 213.619 1407.68 206.595 1390 206.595H1290L1271.13 187.195C1264.92 180.805 1257.49 175.725 1249.28 172.256C1241.07 168.787 1232.25 167 1223.33 167C1214.42 167 1205.6 168.787 1197.39 172.256C1189.18 175.725 1181.75 180.805 1175.53 187.195L1156.67 206.595H1056.67C1038.99 206.595 1022.03 213.619 1009.53 226.121C997.024 238.624 990 255.581 990 273.262V671.362C990 689.043 997.024 706 1009.53 718.502C1022.03 731.005 1038.99 738.028 1056.67 738.028H1123.33V771.362ZM1266.1 229.828C1269.21 233.024 1272.92 235.565 1277.03 237.299C1281.13 239.034 1285.54 239.928 1290 239.928H1390C1398.84 239.928 1407.32 243.44 1413.57 249.692C1419.82 255.943 1423.33 264.421 1423.33 273.262V563.695C1418.43 559.881 1413.28 556.395 1407.92 553.262C1377.5 535.562 1333.52 526.362 1281.53 557.028C1238.73 582.278 1198.48 589.112 1154.7 590.028C1135.2 590.445 1115.23 589.695 1093.85 588.878C1090.91 588.765 1087.96 588.653 1085.02 588.545C1064.47 587.653 1043.9 587.314 1023.33 587.528V273.278C1023.33 264.438 1026.85 255.959 1033.1 249.708C1039.35 243.457 1047.83 239.945 1056.67 239.945H1156.67C1161.12 239.945 1165.53 239.051 1169.64 237.316C1173.74 235.581 1177.46 233.041 1180.57 229.845L1199.43 210.445C1202.54 207.25 1206.26 204.71 1210.36 202.976C1214.47 201.241 1218.88 200.348 1223.33 200.348C1227.79 200.348 1232.2 201.241 1236.31 202.976C1240.41 204.71 1244.13 207.25 1247.23 210.445L1266.1 229.828ZM1023.33 620.878V671.362C1023.33 680.202 1026.85 688.681 1033.1 694.932C1039.35 701.183 1047.83 704.695 1056.67 704.695H1390C1398.84 704.695 1407.32 701.183 1413.57 694.932C1419.82 688.681 1423.33 680.202 1423.33 671.362V610.195C1414.43 598.922 1403.52 589.39 1391.15 582.078C1369.58 569.512 1338.58 562.062 1298.48 585.712C1249.18 614.795 1202.77 622.345 1155.4 623.345C1134.83 623.778 1113.83 622.978 1092.57 622.178L1083.78 621.845C1063.65 620.973 1043.49 620.65 1023.33 620.878Z" fill="#737370"/>
<path d="M1067.47 494H1044.39L1111.15 312.182H1133.88L1200.64 494H1177.56L1123.23 340.946H1121.81L1067.47 494ZM1076 422.977H1169.04V442.509H1076V422.977ZM1228.96 494V312.182H1292.53C1305.19 312.182 1315.64 314.372 1323.87 318.751C1332.09 323.072 1338.22 328.902 1342.24 336.241C1346.27 343.521 1348.28 351.599 1348.28 360.477C1348.28 368.29 1346.89 374.741 1344.11 379.831C1341.39 384.921 1337.78 388.946 1333.28 391.905C1328.84 394.864 1324.01 397.054 1318.81 398.474V400.25C1324.37 400.605 1329.96 402.558 1335.59 406.109C1341.21 409.661 1345.91 414.75 1349.7 421.379C1353.49 428.008 1355.38 436.116 1355.38 445.705C1355.38 454.819 1353.31 463.016 1349.17 470.296C1345.03 477.576 1338.49 483.347 1329.55 487.608C1320.61 491.869 1308.98 494 1294.66 494H1228.96ZM1250.98 474.469H1294.66C1309.04 474.469 1319.25 471.687 1325.29 466.124C1331.38 460.501 1334.43 453.695 1334.43 445.705C1334.43 439.549 1332.86 433.867 1329.73 428.659C1326.59 423.392 1322.12 419.189 1316.32 416.053C1310.52 412.857 1303.65 411.259 1295.72 411.259H1250.98V474.469ZM1250.98 392.082H1291.82C1298.45 392.082 1304.42 390.78 1309.75 388.176C1315.14 385.572 1319.4 381.902 1322.53 377.168C1325.73 372.433 1327.33 366.869 1327.33 360.477C1327.33 352.487 1324.55 345.71 1318.98 340.147C1313.42 334.524 1304.6 331.713 1292.53 331.713H1250.98V392.082Z" fill="#006CA9"/>
<path d="M1067.47 2014H1044.39L1111.15 1832.18H1133.88L1200.64 2014H1177.56L1123.23 1860.95H1121.81L1067.47 2014ZM1076 1942.98H1169.04V1962.51H1076V1942.98ZM1228.96 2014V1832.18H1292.53C1305.19 1832.18 1315.64 1834.37 1323.87 1838.75C1332.09 1843.07 1338.22 1848.9 1342.24 1856.24C1346.27 1863.52 1348.28 1871.6 1348.28 1880.48C1348.28 1888.29 1346.89 1894.74 1344.11 1899.83C1341.39 1904.92 1337.78 1908.95 1333.28 1911.9C1328.84 1914.86 1324.01 1917.05 1318.81 1918.47V1920.25C1324.37 1920.61 1329.96 1922.56 1335.59 1926.11C1341.21 1929.66 1345.91 1934.75 1349.7 1941.38C1353.49 1948.01 1355.38 1956.12 1355.38 1965.7C1355.38 1974.82 1353.31 1983.02 1349.17 1990.3C1345.03 1997.58 1338.49 2003.35 1329.55 2007.61C1320.61 2011.87 1308.98 2014 1294.66 2014H1228.96ZM1250.98 1994.47H1294.66C1309.04 1994.47 1319.25 1991.69 1325.29 1986.12C1331.38 1980.5 1334.43 1973.69 1334.43 1965.7C1334.43 1959.55 1332.86 1953.87 1329.73 1948.66C1326.59 1943.39 1322.12 1939.19 1316.32 1936.05C1310.52 1932.86 1303.65 1931.26 1295.72 1931.26H1250.98V1994.47ZM1250.98 1912.08H1291.82C1298.45 1912.08 1304.42 1910.78 1309.75 1908.18C1315.14 1905.57 1319.4 1901.9 1322.53 1897.17C1325.73 1892.43 1327.33 1886.87 1327.33 1880.48C1327.33 1872.49 1324.55 1865.71 1318.98 1860.15C1313.42 1854.52 1304.6 1851.71 1292.53 1851.71H1250.98V1912.08Z" fill="#006CA9"/>
<path fill-rule="evenodd" clip-rule="evenodd" d="M1618.33 771.362H1701.67V838.028H1735V771.362H1818.33V738.028H1885C1902.68 738.028 1919.64 731.005 1932.14 718.502C1944.64 706 1951.67 689.043 1951.67 671.362V273.262C1951.67 255.581 1944.64 238.624 1932.14 226.121C1919.64 213.619 1902.68 206.595 1885 206.595H1785L1766.13 187.195C1759.92 180.805 1752.49 175.725 1744.28 172.256C1736.07 168.787 1727.25 167 1718.33 167C1709.42 167 1700.6 168.787 1692.39 172.256C1684.18 175.725 1676.75 180.805 1670.53 187.195L1651.67 206.595H1551.67C1533.99 206.595 1517.03 213.619 1504.53 226.121C1492.02 238.624 1485 255.581 1485 273.262V671.362C1485 689.043 1492.02 706 1504.53 718.502C1517.03 731.005 1533.99 738.028 1551.67 738.028H1618.33V771.362ZM1761.1 229.828C1764.21 233.024 1767.92 235.565 1772.03 237.299C1776.13 239.034 1780.54 239.928 1785 239.928H1885C1893.84 239.928 1902.32 243.44 1908.57 249.692C1914.82 255.943 1918.33 264.421 1918.33 273.262V563.695C1913.43 559.881 1908.28 556.395 1902.92 553.262C1872.5 535.562 1828.52 526.362 1776.53 557.028C1733.73 582.278 1693.48 589.112 1649.7 590.028C1630.2 590.445 1610.23 589.695 1588.85 588.878C1585.91 588.765 1582.96 588.653 1580.02 588.545C1559.47 587.653 1538.9 587.314 1518.33 587.528V273.278C1518.33 264.438 1521.85 255.959 1528.1 249.708C1534.35 243.457 1542.83 239.945 1551.67 239.945H1651.67C1656.12 239.945 1660.53 239.051 1664.64 237.316C1668.74 235.581 1672.46 233.041 1675.57 229.845L1694.43 210.445C1697.54 207.25 1701.26 204.71 1705.36 202.976C1709.47 201.241 1713.88 200.348 1718.33 200.348C1722.79 200.348 1727.2 201.241 1731.31 202.976C1735.41 204.71 1739.13 207.25 1742.23 210.445L1761.1 229.828ZM1518.33 620.878V671.362C1518.33 680.202 1521.85 688.681 1528.1 694.932C1534.35 701.183 1542.83 704.695 1551.67 704.695H1885C1893.84 704.695 1902.32 701.183 1908.57 694.932C1914.82 688.681 1918.33 680.202 1918.33 671.362V610.195C1909.43 598.922 1898.52 589.39 1886.15 582.078C1864.58 569.512 1833.58 562.062 1793.48 585.712C1744.18 614.795 1697.77 622.345 1650.4 623.345C1629.83 623.778 1608.83 622.978 1587.57 622.178L1578.78 621.845C1558.65 620.973 1538.49 620.65 1518.33 620.878Z" fill="#737370"/>
<path d="M1808.43 403.091C1808.43 422.267 1804.96 438.839 1798.04 452.807C1791.11 466.775 1781.62 477.546 1769.54 485.122C1757.47 492.698 1743.68 496.486 1728.17 496.486C1712.66 496.486 1698.87 492.698 1686.8 485.122C1674.73 477.546 1665.23 466.775 1658.3 452.807C1651.38 438.839 1647.91 422.267 1647.91 403.091C1647.91 383.915 1651.38 367.343 1658.3 353.375C1665.23 339.407 1674.73 328.635 1686.8 321.06C1698.87 313.484 1712.66 309.696 1728.17 309.696C1743.68 309.696 1757.47 313.484 1769.54 321.06C1781.62 328.635 1791.11 339.407 1798.04 353.375C1804.96 367.343 1808.43 383.915 1808.43 403.091ZM1787.12 403.091C1787.12 387.348 1784.49 374.06 1779.22 363.229C1774.01 352.398 1766.94 344.201 1758 338.638C1749.12 333.074 1739.18 330.293 1728.17 330.293C1717.16 330.293 1707.19 333.074 1698.25 338.638C1689.37 344.201 1682.3 352.398 1677.03 363.229C1671.83 374.06 1669.22 387.348 1669.22 403.091C1669.22 418.834 1671.83 432.121 1677.03 442.952C1682.3 453.783 1689.37 461.981 1698.25 467.544C1707.19 473.107 1717.16 475.889 1728.17 475.889C1739.18 475.889 1749.12 473.107 1758 467.544C1766.94 461.981 1774.01 453.783 1779.22 442.952C1784.49 432.121 1787.12 418.834 1787.12 403.091Z" fill="#006CA9"/>
<path d="M1808.43 1923.09C1808.43 1942.27 1804.96 1958.84 1798.04 1972.81C1791.11 1986.77 1781.62 1997.55 1769.54 2005.12C1757.47 2012.7 1743.68 2016.49 1728.17 2016.49C1712.66 2016.49 1698.87 2012.7 1686.8 2005.12C1674.73 1997.55 1665.23 1986.77 1658.3 1972.81C1651.38 1958.84 1647.91 1942.27 1647.91 1923.09C1647.91 1903.91 1651.38 1887.34 1658.3 1873.38C1665.23 1859.41 1674.73 1848.64 1686.8 1841.06C1698.87 1833.48 1712.66 1829.7 1728.17 1829.7C1743.68 1829.7 1757.47 1833.48 1769.54 1841.06C1781.62 1848.64 1791.11 1859.41 1798.04 1873.38C1804.96 1887.34 1808.43 1903.91 1808.43 1923.09ZM1787.12 1923.09C1787.12 1907.35 1784.49 1894.06 1779.22 1883.23C1774.01 1872.4 1766.94 1864.2 1758 1858.64C1749.12 1853.07 1739.18 1850.29 1728.17 1850.29C1717.16 1850.29 1707.19 1853.07 1698.25 1858.64C1689.37 1864.2 1682.3 1872.4 1677.03 1883.23C1671.83 1894.06 1669.22 1907.35 1669.22 1923.09C1669.22 1938.83 1671.83 1952.12 1677.03 1962.95C1682.3 1973.78 1689.37 1981.98 1698.25 1987.54C1707.19 1993.11 1717.16 1995.89 1728.17 1995.89C1739.18 1995.89 1749.12 1993.11 1758 1987.54C1766.94 1981.98 1774.01 1973.78 1779.22 1962.95C1784.49 1952.12 1787.12 1938.83 1787.12 1923.09Z" fill="#006CA9"/>
<path d="M229.464 1424.54C231.417 1426.49 234.583 1426.49 236.536 1424.54L268.355 1392.72C270.308 1390.76 270.308 1387.6 268.355 1385.64C266.403 1383.69 263.237 1383.69 261.284 1385.64L233 1413.93L204.716 1385.64C202.763 1383.69 199.597 1383.69 197.645 1385.64C195.692 1387.6 195.692 1390.76 197.645 1392.72L229.464 1424.54ZM228 838L228 1421H238L238 838H228Z" fill="#FA8F00"/>
<path d="M1714.46 1424.54C1716.42 1426.49 1719.58 1426.49 1721.54 1424.54L1753.36 1392.72C1755.31 1390.76 1755.31 1387.6 1753.36 1385.64C1751.4 1383.69 1748.24 1383.69 1746.28 1385.64L1718 1413.93L1689.72 1385.64C1687.76 1383.69 1684.6 1383.69 1682.64 1385.64C1680.69 1387.6 1680.69 1390.76 1682.64 1392.72L1714.46 1424.54ZM1713 838V1421H1723V838H1713Z" fill="#FA8F00"/>
<path d="M1218.02 1421.41C1218.24 1424.16 1220.65 1426.21 1223.41 1425.98L1268.26 1422.32C1271.01 1422.1 1273.06 1419.68 1272.83 1416.93C1272.61 1414.18 1270.2 1412.13 1267.44 1412.36L1227.58 1415.61L1224.32 1375.74C1224.1 1372.99 1221.68 1370.94 1218.93 1371.17C1216.18 1371.39 1214.13 1373.8 1214.36 1376.56L1218.02 1421.41ZM1714.19 834.764L1219.19 1417.76L1226.81 1424.24L1721.81 841.236L1714.19 834.764Z" fill="#FA8F00"/>
<path d="M723.159 1419.75C722.468 1422.42 724.074 1425.15 726.748 1425.84L770.313 1437.11C772.986 1437.8 775.714 1436.2 776.406 1433.52C777.098 1430.85 775.491 1428.12 772.818 1427.43L734.093 1417.41L744.113 1378.69C744.805 1376.01 743.198 1373.29 740.525 1372.59C737.851 1371.9 735.123 1373.51 734.432 1376.18L723.159 1419.75ZM1715.46 833.692L725.463 1416.69L730.537 1425.31L1720.54 842.308L1715.46 833.692Z" fill="#FA8F00"/>
<path d="M228.417 1419C227.313 1421.53 228.47 1424.48 231.001 1425.58L272.248 1443.57C274.779 1444.68 277.726 1443.52 278.83 1440.99C279.934 1438.46 278.777 1435.51 276.246 1434.41L239.582 1418.42L255.574 1381.75C256.678 1379.22 255.521 1376.27 252.99 1375.17C250.459 1374.07 247.512 1375.22 246.408 1377.75L228.417 1419ZM1716.17 833.346L231.173 1416.35L234.827 1425.65L1719.83 842.654L1716.17 833.346Z" fill="#FA8F00"/>
<path d="M1219.46 1424.54C1221.42 1426.49 1224.58 1426.49 1226.54 1424.54L1258.36 1392.72C1260.31 1390.76 1260.31 1387.6 1258.36 1385.64C1256.4 1383.69 1253.24 1383.69 1251.28 1385.64L1223 1413.93L1194.72 1385.64C1192.76 1383.69 1189.6 1383.69 1187.64 1385.64C1185.69 1387.6 1185.69 1390.76 1187.64 1392.72L1219.46 1424.54ZM1218 838V1421H1228V838H1218Z" fill="#FA8F00"/>
<path d="M1222.59 1425.98C1225.35 1426.21 1227.76 1424.16 1227.98 1421.41L1231.64 1376.56C1231.87 1373.8 1229.82 1371.39 1227.07 1371.17C1224.32 1370.94 1221.9 1372.99 1221.68 1375.74L1218.42 1415.61L1178.56 1412.36C1175.8 1412.13 1173.39 1414.18 1173.17 1416.93C1172.94 1419.68 1174.99 1422.1 1177.74 1422.32L1222.59 1425.98ZM724.189 841.236L1219.19 1424.24L1226.81 1417.76L731.811 834.764L724.189 841.236Z" fill="#FA8F00"/>
<path d="M724.464 1424.54C726.417 1426.49 729.583 1426.49 731.536 1424.54L763.355 1392.72C765.308 1390.76 765.308 1387.6 763.355 1385.64C761.403 1383.69 758.237 1383.69 756.284 1385.64L728 1413.93L699.716 1385.64C697.763 1383.69 694.597 1383.69 692.645 1385.64C690.692 1387.6 690.692 1390.76 692.645 1392.72L724.464 1424.54ZM723 838V1421H733V838H723Z" fill="#FA8F00"/>
<path d="M1224.25 1425.84C1226.93 1425.15 1228.53 1422.42 1227.84 1419.75L1216.57 1376.18C1215.88 1373.51 1213.15 1371.9 1210.48 1372.59C1207.8 1373.29 1206.2 1376.01 1206.89 1378.69L1216.91 1417.41L1178.18 1427.43C1175.51 1428.12 1173.9 1430.85 1174.59 1433.52C1175.29 1436.2 1178.01 1437.8 1180.69 1437.11L1224.25 1425.84ZM230.463 842.308L1220.46 1425.31L1225.54 1416.69L235.537 833.692L230.463 842.308Z" fill="#FA8F00"/>
<path d="M805.401 147.705C798.582 147.705 792.563 145.982 787.343 142.538C782.123 139.058 778.039 134.157 775.092 127.836C772.144 121.479 770.67 113.969 770.67 105.304C770.67 96.7102 772.144 89.2528 775.092 82.9318C778.039 76.6108 782.141 71.728 787.396 68.2834C792.652 64.8388 798.724 63.1165 805.614 63.1165C810.94 63.1165 815.148 64.0043 818.238 65.7798C821.363 67.5199 823.742 69.5085 825.376 71.7457C827.045 73.9474 828.341 75.7585 829.264 77.179H830.33V36.9091H842.901V146H830.756V133.429H829.264C828.341 134.92 827.027 136.803 825.322 139.075C823.618 141.312 821.185 143.319 818.025 145.094C814.864 146.835 810.656 147.705 805.401 147.705ZM807.105 136.412C812.148 136.412 816.409 135.098 819.889 132.47C823.369 129.807 826.015 126.131 827.826 121.444C829.637 116.721 830.543 111.27 830.543 105.091C830.543 98.983 829.655 93.6385 827.879 89.0575C826.104 84.4411 823.476 80.8544 819.996 78.2976C816.516 75.7053 812.219 74.4091 807.105 74.4091C801.778 74.4091 797.339 75.7763 793.788 78.5107C790.273 81.2095 787.627 84.8849 785.852 89.5369C784.112 94.1534 783.241 99.3381 783.241 105.091C783.241 110.915 784.129 116.206 785.905 120.964C787.716 125.687 790.379 129.452 793.895 132.257C797.446 135.027 801.849 136.412 807.105 136.412ZM900.908 147.705C893.522 147.705 887.041 145.947 881.466 142.431C875.926 138.915 871.594 133.997 868.469 127.676C865.379 121.355 863.835 113.969 863.835 105.517C863.835 96.9943 865.379 89.5547 868.469 83.1982C871.594 76.8416 875.926 71.9055 881.466 68.3899C887.041 64.8743 893.522 63.1165 900.908 63.1165C908.295 63.1165 914.758 64.8743 920.298 68.3899C925.873 71.9055 930.205 76.8416 933.295 83.1982C936.42 89.5547 937.982 96.9943 937.982 105.517C937.982 113.969 936.42 121.355 933.295 127.676C930.205 133.997 925.873 138.915 920.298 142.431C914.758 145.947 908.295 147.705 900.908 147.705ZM900.908 136.412C906.519 136.412 911.136 134.974 914.758 132.097C918.38 129.221 921.061 125.439 922.801 120.751C924.541 116.064 925.411 110.986 925.411 105.517C925.411 100.048 924.541 94.9524 922.801 90.2294C921.061 85.5064 918.38 81.6889 914.758 78.777C911.136 75.8651 906.519 74.4091 900.908 74.4091C895.298 74.4091 890.681 75.8651 887.059 78.777C883.437 81.6889 880.756 85.5064 879.016 90.2294C877.276 94.9524 876.406 100.048 876.406 105.517C876.406 110.986 877.276 116.064 879.016 120.751C880.756 125.439 883.437 129.221 887.059 132.097C890.681 134.974 895.298 136.412 900.908 136.412ZM969.743 96.7812V146H957.172V64.1818H969.317V76.9659H970.382C972.3 72.8111 975.211 69.473 979.118 66.9517C983.024 64.3949 988.067 63.1165 994.246 63.1165C999.785 63.1165 1004.63 64.2528 1008.79 66.5256C1012.94 68.7628 1016.17 72.1719 1018.48 76.7528C1020.79 81.2983 1021.94 87.0511 1021.94 94.0114V146H1009.37V94.8636C1009.37 88.4361 1007.7 83.429 1004.37 79.8423C1001.03 76.2202 996.447 74.4091 990.623 74.4091C986.611 74.4091 983.024 75.2791 979.863 77.0192C976.738 78.7592 974.27 81.2983 972.459 84.6364C970.648 87.9744 969.743 92.0227 969.743 96.7812ZM1078.15 147.705C1070.77 147.705 1064.29 145.947 1058.71 142.431C1053.17 138.915 1048.84 133.997 1045.71 127.676C1042.63 121.355 1041.08 113.969 1041.08 105.517C1041.08 96.9943 1042.63 89.5547 1045.71 83.1982C1048.84 76.8416 1053.17 71.9055 1058.71 68.3899C1064.29 64.8743 1070.77 63.1165 1078.15 63.1165C1085.54 63.1165 1092 64.8743 1097.54 68.3899C1103.12 71.9055 1107.45 76.8416 1110.54 83.1982C1113.67 89.5547 1115.23 96.9943 1115.23 105.517C1115.23 113.969 1113.67 121.355 1110.54 127.676C1107.45 133.997 1103.12 138.915 1097.54 142.431C1092 145.947 1085.54 147.705 1078.15 147.705ZM1078.15 136.412C1083.77 136.412 1088.38 134.974 1092 132.097C1095.63 129.221 1098.31 125.439 1100.05 120.751C1101.79 116.064 1102.66 110.986 1102.66 105.517C1102.66 100.048 1101.79 94.9524 1100.05 90.2294C1098.31 85.5064 1095.63 81.6889 1092 78.777C1088.38 75.8651 1083.77 74.4091 1078.15 74.4091C1072.54 74.4091 1067.93 75.8651 1064.31 78.777C1060.68 81.6889 1058 85.5064 1056.26 90.2294C1054.52 94.9524 1053.65 100.048 1053.65 105.517C1053.65 110.986 1054.52 116.064 1056.26 120.751C1058 125.439 1060.68 129.221 1064.31 132.097C1067.93 134.974 1072.54 136.412 1078.15 136.412ZM1134.42 146V64.1818H1146.56V76.5398H1147.41C1148.91 72.4915 1151.61 69.2067 1155.51 66.6854C1159.42 64.1641 1163.82 62.9034 1168.72 62.9034C1169.65 62.9034 1170.8 62.9212 1172.18 62.9567C1173.57 62.9922 1174.62 63.0455 1175.33 63.1165V75.9006C1174.9 75.794 1173.92 75.6342 1172.4 75.4212C1170.91 75.1726 1169.33 75.0483 1167.66 75.0483C1163.68 75.0483 1160.13 75.8828 1157 77.5518C1153.91 79.1854 1151.46 81.4581 1149.65 84.37C1147.88 87.2464 1146.99 90.5312 1146.99 94.2244V146H1134.42Z" fill="#006CA9"/>
<path d="M676.506 2172V2090.18H688.651V2102.54H689.503C690.994 2098.49 693.693 2095.21 697.599 2092.69C701.506 2090.16 705.909 2088.9 710.81 2088.9C711.733 2088.9 712.887 2088.92 714.272 2088.96C715.657 2088.99 716.705 2089.05 717.415 2089.12V2101.9C716.989 2101.79 716.012 2101.63 714.485 2101.42C712.994 2101.17 711.413 2101.05 709.744 2101.05C705.767 2101.05 702.216 2101.88 699.091 2103.55C696.001 2105.19 693.551 2107.46 691.74 2110.37C689.964 2113.25 689.077 2116.53 689.077 2120.22V2172H676.506ZM764.13 2173.7C756.246 2173.7 749.446 2171.96 743.729 2168.48C738.047 2164.97 733.661 2160.07 730.572 2153.78C727.518 2147.46 725.991 2140.11 725.991 2131.73C725.991 2123.35 727.518 2115.96 730.572 2109.57C733.661 2103.14 737.958 2098.14 743.462 2094.55C749.002 2090.93 755.465 2089.12 762.852 2089.12C767.113 2089.12 771.321 2089.83 775.476 2091.25C779.631 2092.67 783.413 2094.98 786.822 2098.17C790.231 2101.33 792.947 2105.52 794.972 2110.74C796.996 2115.96 798.008 2122.39 798.008 2130.03V2135.35H734.94V2124.49H785.224C785.224 2119.87 784.3 2115.75 782.454 2112.13C780.643 2108.51 778.05 2105.65 774.677 2103.55C771.339 2101.46 767.397 2100.41 762.852 2100.41C757.844 2100.41 753.512 2101.65 749.854 2104.14C746.232 2106.59 743.445 2109.78 741.491 2113.73C739.538 2117.67 738.562 2121.89 738.562 2126.4V2133.65C738.562 2139.83 739.627 2145.06 741.758 2149.36C743.924 2153.62 746.925 2156.87 750.76 2159.11C754.595 2161.31 759.052 2162.41 764.13 2162.41C767.433 2162.41 770.415 2161.95 773.079 2161.03C775.778 2160.07 778.104 2158.65 780.057 2156.77C782.01 2154.85 783.519 2152.47 784.585 2149.63L796.729 2153.04C795.451 2157.16 793.303 2160.78 790.284 2163.9C787.266 2166.99 783.537 2169.41 779.098 2171.15C774.659 2172.85 769.67 2173.7 764.13 2173.7ZM850.369 2173.7C842.699 2173.7 836.094 2171.89 830.554 2168.27C825.014 2164.65 820.753 2159.66 817.77 2153.3C814.787 2146.95 813.295 2139.68 813.295 2131.52C813.295 2123.21 814.822 2115.87 817.876 2109.52C820.966 2103.13 825.263 2098.14 830.767 2094.55C836.307 2090.93 842.77 2089.12 850.156 2089.12C855.909 2089.12 861.094 2090.18 865.71 2092.31C870.327 2094.44 874.109 2097.43 877.056 2101.26C880.004 2105.1 881.832 2109.57 882.543 2114.68H869.972C869.013 2110.96 866.882 2107.65 863.58 2104.78C860.313 2101.87 855.909 2100.41 850.369 2100.41C845.469 2100.41 841.172 2101.69 837.479 2104.24C833.821 2106.77 830.962 2110.33 828.903 2114.95C826.879 2119.53 825.866 2124.91 825.866 2131.09C825.866 2137.41 826.861 2142.92 828.849 2147.6C830.874 2152.29 833.714 2155.93 837.372 2158.52C841.065 2161.12 845.398 2162.41 850.369 2162.41C853.636 2162.41 856.602 2161.84 859.265 2160.71C861.928 2159.57 864.183 2157.94 866.03 2155.81C867.876 2153.68 869.19 2151.12 869.972 2148.14H882.543C881.832 2152.97 880.075 2157.32 877.269 2161.19C874.499 2165.02 870.824 2168.08 866.243 2170.35C861.697 2172.59 856.406 2173.7 850.369 2173.7ZM900.92 2172V2090.18H913.491V2172H900.92ZM907.312 2076.55C904.862 2076.55 902.749 2075.71 900.973 2074.04C899.233 2072.37 898.363 2070.37 898.363 2068.02C898.363 2065.68 899.233 2063.67 900.973 2062C902.749 2060.33 904.862 2059.5 907.312 2059.5C909.762 2059.5 911.857 2060.33 913.597 2062C915.373 2063.67 916.261 2065.68 916.261 2068.02C916.261 2070.37 915.373 2072.37 913.597 2074.04C911.857 2075.71 909.762 2076.55 907.312 2076.55ZM936.515 2202.68V2090.18H948.66V2103.18H950.152C951.075 2101.76 952.354 2099.95 953.987 2097.75C955.656 2095.51 958.035 2093.52 961.125 2091.78C964.25 2090 968.476 2089.12 973.802 2089.12C980.692 2089.12 986.764 2090.84 992.02 2094.28C997.275 2097.73 1001.38 2102.61 1004.32 2108.93C1007.27 2115.25 1008.75 2122.71 1008.75 2131.3C1008.75 2139.97 1007.27 2147.48 1004.32 2153.84C1001.38 2160.16 997.293 2165.06 992.073 2168.54C986.853 2171.98 980.834 2173.7 974.015 2173.7C968.76 2173.7 964.552 2172.83 961.391 2171.09C958.231 2169.32 955.798 2167.31 954.094 2165.08C952.389 2162.8 951.075 2160.92 950.152 2159.43H949.086V2202.68H936.515ZM948.873 2131.09C948.873 2137.27 949.779 2142.72 951.59 2147.44C953.401 2152.13 956.047 2155.81 959.527 2158.47C963.007 2161.1 967.268 2162.41 972.311 2162.41C977.567 2162.41 981.952 2161.03 985.468 2158.26C989.019 2155.45 991.682 2151.69 993.458 2146.96C995.269 2142.21 996.175 2136.91 996.175 2131.09C996.175 2125.34 995.287 2120.15 993.511 2115.54C991.771 2110.88 989.126 2107.21 985.574 2104.51C982.059 2101.78 977.638 2100.41 972.311 2100.41C967.197 2100.41 962.9 2101.71 959.42 2104.3C955.94 2106.85 953.312 2110.44 951.537 2115.06C949.761 2119.64 948.873 2124.98 948.873 2131.09ZM1027.92 2172V2090.18H1040.49V2172H1027.92ZM1034.31 2076.55C1031.86 2076.55 1029.75 2075.71 1027.97 2074.04C1026.23 2072.37 1025.36 2070.37 1025.36 2068.02C1025.36 2065.68 1026.23 2063.67 1027.97 2062C1029.75 2060.33 1031.86 2059.5 1034.31 2059.5C1036.76 2059.5 1038.86 2060.33 1040.6 2062C1042.37 2063.67 1043.26 2065.68 1043.26 2068.02C1043.26 2070.37 1042.37 2072.37 1040.6 2074.04C1038.86 2075.71 1036.76 2076.55 1034.31 2076.55ZM1097.82 2173.7C1089.94 2173.7 1083.14 2171.96 1077.42 2168.48C1071.74 2164.97 1067.35 2160.07 1064.26 2153.78C1061.21 2147.46 1059.68 2140.11 1059.68 2131.73C1059.68 2123.35 1061.21 2115.96 1064.26 2109.57C1067.35 2103.14 1071.65 2098.14 1077.15 2094.55C1082.69 2090.93 1089.16 2089.12 1096.54 2089.12C1100.8 2089.12 1105.01 2089.83 1109.17 2091.25C1113.32 2092.67 1117.1 2094.98 1120.51 2098.17C1123.92 2101.33 1126.64 2105.52 1128.66 2110.74C1130.69 2115.96 1131.7 2122.39 1131.7 2130.03V2135.35H1068.63V2124.49H1118.92C1118.92 2119.87 1117.99 2115.75 1116.15 2112.13C1114.33 2108.51 1111.74 2105.65 1108.37 2103.55C1105.03 2101.46 1101.09 2100.41 1096.54 2100.41C1091.54 2100.41 1087.2 2101.65 1083.55 2104.14C1079.92 2106.59 1077.14 2109.78 1075.18 2113.73C1073.23 2117.67 1072.25 2121.89 1072.25 2126.4V2133.65C1072.25 2139.83 1073.32 2145.06 1075.45 2149.36C1077.62 2153.62 1080.62 2156.87 1084.45 2159.11C1088.29 2161.31 1092.74 2162.41 1097.82 2162.41C1101.12 2162.41 1104.11 2161.95 1106.77 2161.03C1109.47 2160.07 1111.8 2158.65 1113.75 2156.77C1115.7 2154.85 1117.21 2152.47 1118.28 2149.63L1130.42 2153.04C1129.14 2157.16 1126.99 2160.78 1123.98 2163.9C1120.96 2166.99 1117.23 2169.41 1112.79 2171.15C1108.35 2172.85 1103.36 2173.7 1097.82 2173.7ZM1163.39 2122.78V2172H1150.82V2090.18H1162.97V2102.97H1164.03C1165.95 2098.81 1168.86 2095.47 1172.77 2092.95C1176.67 2090.39 1181.72 2089.12 1187.9 2089.12C1193.44 2089.12 1198.28 2090.25 1202.44 2092.53C1206.59 2094.76 1209.82 2098.17 1212.13 2102.75C1214.44 2107.3 1215.59 2113.05 1215.59 2120.01V2172H1203.02V2120.86C1203.02 2114.44 1201.35 2109.43 1198.02 2105.84C1194.68 2102.22 1190.1 2100.41 1184.27 2100.41C1180.26 2100.41 1176.67 2101.28 1173.51 2103.02C1170.39 2104.76 1167.92 2107.3 1166.11 2110.64C1164.3 2113.97 1163.39 2118.02 1163.39 2122.78ZM1274.15 2090.18V2100.84H1231.75V2090.18H1274.15ZM1244.11 2070.58H1256.68V2148.56C1256.68 2152.11 1257.19 2154.78 1258.22 2156.55C1259.29 2158.29 1260.64 2159.46 1262.27 2160.07C1263.94 2160.64 1265.7 2160.92 1267.54 2160.92C1268.93 2160.92 1270.06 2160.85 1270.95 2160.71C1271.84 2160.53 1272.55 2160.39 1273.08 2160.28L1275.64 2171.57C1274.79 2171.89 1273.6 2172.21 1272.07 2172.53C1270.54 2172.89 1268.61 2173.07 1266.27 2173.07C1262.71 2173.07 1259.23 2172.3 1255.82 2170.77C1252.45 2169.25 1249.65 2166.92 1247.41 2163.8C1245.21 2160.67 1244.11 2156.73 1244.11 2151.97V2070.58Z" fill="#006CA9"/>
</svg>
